<svg width="200" height="80" viewBox="0 0 200 80" fill="none" xmlns="http://www.w3.org/2000/svg">
  <!-- Shield Background -->
  <path d="M40 10L20 20V60L40 70L60 60V20L40 10Z" fill="#1E3A8A"/>
  
  <!-- Shield Border -->
  <path d="M40 10L20 20V60L40 70L60 60V20L40 10Z" stroke="white" stroke-width="2"/>
  
  <!-- Car Silhouette -->
  <path d="M32 35L35 45H45L48 35H32Z" fill="white"/>
  <path d="M30 45C31.1046 45 32 44.1046 32 43C32 41.8954 31.1046 41 30 41C28.8954 41 28 41.8954 28 43C28 44.1046 28.8954 45 30 45Z" fill="white"/>
  <path d="M50 45C51.1046 45 52 44.1046 52 43C52 41.8954 51.1046 41 50 41C48.8954 41 48 41.8954 48 43C48 44.1046 48.8954 45 50 45Z" fill="white"/>
  
  <!-- Chevron -->
  <path d="M70 55L80 45L70 35" stroke="#EF4444" stroke-width="4" stroke-linecap="round"/>
  <path d="M90 35L80 45L90 55" stroke="#EF4444" stroke-width="4" stroke-linecap="round"/>
  
  <!-- CARMIGGO Text -->
  <text x="110" y="50" font-family="Arial, sans-serif" font-size="32" font-weight="bold" fill="#1E3A8A">CARMIGGO</text>
</svg>
